<svg width="18" height="14" viewBox="0 0 18 14" fill="none" xmlns="http://www.w3.org/2000/svg">
<g id="fill">
<path id="Union" fill-rule="evenodd" clip-rule="evenodd" d="M7.95829 0.645782C7.32547 0.645782 6.81246 1.15879 6.81246 1.79161V12.2083C6.81246 12.8411 7.32547 13.3541 7.95829 13.3541H10.0416C10.6745 13.3541 11.1875 12.8411 11.1875 12.2083V1.79162C11.1875 1.15879 10.6745 0.645782 10.0416 0.645782H7.95829ZM7.85413 1.79161C7.85413 1.73409 7.90076 1.68745 7.95829 1.68745H10.0416C10.0992 1.68745 10.1458 1.73409 10.1458 1.79162V12.2083C10.1458 12.2658 10.0992 12.3124 10.0416 12.3124H7.95829C7.90076 12.3124 7.85413 12.2658 7.85413 12.2083V1.79161ZM12.8541 5.12495C12.8541 4.49212 13.3671 3.97912 14 3.97912H16.0833C16.7161 3.97912 17.2291 4.49212 17.2291 5.12495V12.2083C17.2291 12.8411 16.7161 13.3541 16.0833 13.3541H14C13.3671 13.3541 12.8541 12.8411 12.8541 12.2083V5.12495ZM14 5.02078C13.9424 5.02078 13.8958 5.06742 13.8958 5.12495V12.2083C13.8958 12.2658 13.9424 12.3124 14 12.3124H16.0833C16.1408 12.3124 16.1875 12.2658 16.1875 12.2083V5.12495C16.1875 5.06742 16.1408 5.02078 16.0833 5.02078H14ZM0.979126 8.45833C0.979126 7.8255 1.49213 7.3125 2.12496 7.3125H4.20829C4.84112 7.3125 5.35413 7.8255 5.35413 8.45833V12.2083C5.35413 12.8412 4.84112 13.3542 4.20829 13.3542H2.12496C1.49213 13.3542 0.979126 12.8412 0.979126 12.2083V8.45833ZM2.12496 8.35416C2.06743 8.35416 2.02079 8.4008 2.02079 8.45833V12.2083C2.02079 12.2659 2.06743 12.3125 2.12496 12.3125H4.20829C4.26582 12.3125 4.31246 12.2659 4.31246 12.2083V8.45833C4.31246 8.4008 4.26582 8.35416 4.20829 8.35416H2.12496Z" fill="#60646C"/>
</g>
</svg>
