<svg width="16" height="15" viewBox="0 0 16 15" fill="none" xmlns="http://www.w3.org/2000/svg">
<path id="Vector" d="M4.33333 6.83333V13.5C4.33333 13.721 4.24554 13.933 4.08926 14.0893C3.93298 14.2455 3.72101 14.3333 3.5 14.3333H1.83333C1.61232 14.3333 1.40036 14.2455 1.24408 14.0893C1.0878 13.933 1 13.721 1 13.5V7.66667C1 7.44565 1.0878 7.23369 1.24408 7.07741C1.40036 6.92113 1.61232 6.83333 1.83333 6.83333H4.33333ZM4.33333 6.83333C5.21739 6.83333 6.06524 6.48214 6.69036 5.85702C7.31548 5.2319 7.66667 4.38406 7.66667 3.5V2.66667C7.66667 2.22464 7.84226 1.80072 8.15482 1.48816C8.46738 1.17559 8.89131 1 9.33333 1C9.77536 1 10.1993 1.17559 10.5118 1.48816C10.8244 1.80072 11 2.22464 11 2.66667V6.83333H13.5C13.942 6.83333 14.366 7.00893 14.6785 7.32149C14.9911 7.63405 15.1667 8.05797 15.1667 8.5L14.3333 12.6667C14.2135 13.1779 13.9861 13.6169 13.6855 13.9175C13.3849 14.2181 13.0274 14.364 12.6667 14.3333H6.83333C6.17029 14.3333 5.53441 14.0699 5.06557 13.6011C4.59673 13.1323 4.33333 12.4964 4.33333 11.8333" stroke="#60646C" stroke-linecap="round" stroke-linejoin="round"/>
</svg>
