<svg width="10" height="16" viewBox="0 0 10 16" fill="none" xmlns="http://www.w3.org/2000/svg">
<g id="Group 66">
<path id="Subtract" fill-rule="evenodd" clip-rule="evenodd" d="M7.31861 1.51287C7.26793 1.48638 7.21687 1.46065 7.16504 1.43608C7.11436 1.40959 7.06329 1.38386 7.01146 1.35929C6.96078 1.3328 6.90971 1.30708 6.85788 1.2825C6.8072 1.25601 6.75614 1.23029 6.7043 1.20571C6.05122 0.863236 5.27642 0.666656 4.43827 0.666656C3.39125 0.666656 2.41718 0.962294 1.69575 1.49905C0.999278 2.01737 0.599976 2.71769 0.599976 3.4203C0.599976 3.85647 0.738196 4.22966 0.999662 4.49919C1.12137 4.62474 1.26612 4.72226 1.42546 4.78907C1.47498 4.81786 1.52605 4.84359 1.57903 4.86585C1.62856 4.89465 1.67963 4.92037 1.73261 4.94264C1.78214 4.97144 1.8332 4.99755 1.88619 5.01943C1.93572 5.04823 1.98678 5.07395 2.03977 5.09622C2.24019 5.21371 2.47247 5.27629 2.7182 5.27629C3.54521 5.27629 4.16912 4.68732 4.16912 3.90638C4.16912 3.4299 3.97869 3.03905 3.61432 2.75915C3.95603 2.56142 4.42214 2.38519 4.9969 2.38519C5.26451 2.38519 5.50909 2.41437 5.72985 2.47081C6.12647 2.81022 6.33917 3.32547 6.33917 3.99008C6.33917 5.38111 5.58933 6.22655 4.79533 7.12153L4.79425 7.12275L4.79425 7.12275C4.03937 7.97396 3.25879 8.85414 3.25879 10.2V11.3177L4.02745 11.702H5.59547V11.4716C5.59547 10.4515 5.62734 10.2061 5.99094 9.68858C6.34647 9.18292 6.83024 8.76058 7.34204 8.31406L7.34277 8.31342C8.39378 7.39599 9.48061 6.4473 9.48061 4.69999C9.48061 3.31434 8.61942 2.13179 7.319 1.51287H7.31861ZM5.48452 12.6595C5.43576 12.6311 4.92357 12.375 4.86982 12.352C4.66633 12.2326 4.41715 12.1612 4.12382 12.1612C3.57555 12.1612 3.24343 12.4084 3.06183 12.6161C2.83914 12.8703 2.71167 13.2193 2.71167 13.5737C2.71167 13.9058 2.83952 14.241 3.0626 14.4929C3.16856 14.6127 3.32445 14.7455 3.54061 14.8365C3.58783 14.8641 4.1004 15.1206 4.1553 15.144C4.33998 15.2523 4.58186 15.3333 4.89209 15.3333C5.43537 15.3333 5.76902 15.0853 5.9537 14.8772C6.17677 14.6253 6.30501 14.2901 6.30501 13.958C6.30501 13.4251 6.02511 12.8876 5.4849 12.6595H5.48452ZM2.94165 13.5737C2.94165 13.0012 3.32944 12.3915 4.12382 12.3915C4.9182 12.3915 5.30598 13.0012 5.30598 13.5737C5.30598 14.0909 4.9182 14.719 4.12382 14.719C3.32944 14.719 2.94165 14.0909 2.94165 13.5737ZM0.830344 3.4203C0.830344 2.15444 2.302 0.897022 4.43788 0.897022C6.65823 0.897022 8.48159 2.35716 8.48159 4.31566C8.48159 5.95868 7.44417 6.86412 6.42209 7.75618C5.912 8.20138 5.40573 8.64324 5.03415 9.17179C4.62448 9.75423 4.59645 10.0695 4.59645 11.0873H3.48916V10.2C3.48916 8.94112 4.21856 8.11882 4.9675 7.2745C5.75765 6.38372 6.56954 5.46842 6.56954 3.99008C6.56954 2.68774 5.79551 1.7705 4.22864 1.7705C3.43502 1.7705 2.82455 2.07727 2.41757 2.3825C2.9263 2.62669 3.17048 3.01332 3.17048 3.52205C3.17048 4.17322 2.66214 4.6616 1.94993 4.6616C1.34982 4.6616 0.830344 4.21392 0.830344 3.4203Z" fill="#FFC53D"/>
</g>
</svg>
